<?xml version="1.0" standalone="no"?>
<!DOCTYPE svg PUBLIC "-//W3C//DTD SVG 20010904//EN"
 "http://www.w3.org/TR/2001/REC-SVG-20010904/DTD/svg10.dtd">
<svg version="1.0" xmlns="http://www.w3.org/2000/svg"
 width="500.000000pt" height="500.000000pt" viewBox="0 0 500.000000 500.000000"
 preserveAspectRatio="xMidYMid meet">
<metadata>
Created by potrace 1.16, written by Peter Selinger 2001-2019
</metadata>
<g transform="translate(0.000000,500.000000) scale(0.100000,-0.100000)"
fill="#000000" stroke="none">
<path d="M2255 4568 c-215 -32 -472 -106 -615 -176 -132 -64 -315 -173 -340
-203 -3 -3 -14 -11 -25 -16 -10 -6 -62 -49 -115 -94 -202 -177 -370 -389 -480
-609 -29 -58 -58 -116 -66 -130 -17 -34 -46 -116 -84 -235 -91 -291 -114 -665
-59 -965 30 -164 91 -367 149 -495 15 -33 29 -64 31 -70 5 -14 96 -174 117
-207 64 -100 204 -275 284 -356 127 -126 340 -281 501 -365 87 -45 276 -125
299 -127 4 -1 26 -7 49 -15 85 -30 255 -66 384 -81 82 -9 390 -6 469 6 113 16
282 56 395 92 94 29 421 183 441 207 3 3 25 19 50 36 86 57 311 244 345 288 6
7 37 43 70 81 33 38 67 79 75 92 67 100 95 140 101 144 10 8 147 280 170 338
5 12 13 32 18 45 8 19 34 101 71 222 20 67 50 258 60 385 14 180 1 350 -40
560 -109 545 -431 1021 -900 1330 -94 62 -365 200 -392 200 -8 0 -19 5 -26 12
-7 7 -12 9 -12 5 0 -3 -19 1 -42 9 -69 24 -218 61 -293 73 -38 6 -100 15 -136
21 -78 12 -369 11 -454 -2z m1213 -1460 l3 -208 -76 0 -75 0 2 203 c1 111 3
206 6 210 2 5 34 7 71 5 l66 -3 3 -207z m480 -168 l-193 -195 -51 45 -51 45
196 197 196 198 47 -47 48 -47 -192 -196z m-2648 -31 c25 -7 49 -16 55 -20 5
-5 17 -9 27 -9 10 0 18 -4 18 -10 0 -5 6 -10 13 -10 17 0 115 -102 144 -150
12 -19 25 -47 28 -62 l7 -28 -80 0 c-76 0 -81 1 -97 28 -93 144 -303 161 -417
34 -51 -57 -68 -102 -68 -182 0 -159 110 -271 260 -266 106 4 128 13 198 83
l64 64 69 -3 c69 -2 70 -3 64 -28 -17 -68 -108 -177 -189 -224 -66 -39 -141
-55 -230 -49 -96 5 -145 22 -214 75 -69 51 -105 91 -132 146 -65 129 -65 275
0 402 24 48 118 142 173 174 82 48 204 62 307 35z m525 12 c20 -1 20 -8 20
-426 l0 -425 -77 0 -78 0 0 423 c0 233 3 427 6 430 4 4 30 5 58 3 28 -2 60 -5
71 -5z m520 -176 c70 -16 129 -55 152 -98 13 -26 16 -73 18 -279 1 -135 0
-258 -2 -272 -5 -25 -8 -26 -79 -26 l-74 0 0 35 0 35 -37 -24 c-45 -29 -156
-51 -216 -42 -54 8 -102 37 -126 77 -25 41 -27 171 -2 209 40 62 113 100 216
114 147 18 168 30 159 85 -8 44 -38 61 -109 61 -68 0 -96 -15 -114 -63 -10
-26 -13 -27 -87 -27 l-76 0 7 38 c10 55 52 121 93 145 65 39 188 53 277 32z
m665 -69 l0 -73 -50 -5 c-67 -7 -121 -44 -148 -102 -20 -42 -22 -62 -22 -236
l0 -191 -75 3 -75 3 -6 210 c-3 115 -3 260 1 322 l7 113 69 0 69 0 0 -40 c0
-22 4 -40 8 -40 4 0 24 16 43 36 34 36 59 50 114 64 65 17 65 17 65 -64z m480
57 c61 -20 148 -93 185 -157 84 -145 33 -358 -108 -451 -87 -57 -171 -72 -284
-49 -37 7 -110 54 -149 96 -67 72 -88 125 -91 233 -2 82 1 95 28 150 17 33 47
77 67 98 35 36 112 80 157 90 47 11 147 6 195 -10z m770 -242 l0 -70 -215 2
-215 2 0 67 0 68 215 0 215 0 0 -69z"/>
<path d="M2325 2401 c-6 -5 -48 -18 -94 -29 -46 -12 -91 -28 -100 -37 -25 -24
-22 -120 4 -139 24 -19 107 -21 138 -3 63 35 77 61 82 155 3 61 -6 76 -30 53z"/>
<path d="M3315 2593 c-33 -9 -92 -61 -109 -97 -22 -47 -20 -121 4 -172 27 -54
49 -73 110 -94 72 -24 131 -10 188 47 23 23 42 51 42 62 0 11 5 23 10 26 13 8
13 54 -1 96 -35 105 -136 159 -244 132z"/>
</g>
</svg>
