<?xml version="1.0" standalone="no"?>
<!DOCTYPE svg PUBLIC "-//W3C//DTD SVG 20010904//EN"
 "http://www.w3.org/TR/2001/REC-SVG-20010904/DTD/svg10.dtd">
<svg version="1.0" xmlns="http://www.w3.org/2000/svg"
 width="300.000000pt" height="300.000000pt" viewBox="0 0 300.000000 300.000000"
 preserveAspectRatio="xMidYMid meet">
<metadata>
Created by potrace 1.16, written by Peter Selinger 2001-2019
</metadata>
<g transform="translate(0.000000,300.000000) scale(0.100000,-0.100000)"
fill="#000000" stroke="none">
<path d="M1205 2980 c-290 -58 -555 -200 -764 -409 -212 -212 -348 -459 -417
-756 -28 -117 -28 -513 0 -630 139 -597 586 -1042 1166 -1161 158 -33 446 -34
605 -4 437 85 827 375 1034 771 65 124 103 220 137 354 28 107 29 118 29 355
0 237 -1 248 -29 355 -152 586 -600 1014 -1178 1126 -135 26 -451 26 -583 -1z
m496 -205 c99 -17 201 -50 284 -93 102 -52 105 -58 30 -54 -44 3 -71 -1 -81
-9 -23 -19 -852 -19 -863 0 -6 9 -29 12 -80 9 -61 -3 -69 -1 -54 10 65 49 238
116 352 136 102 19 309 19 412 1z m469 -910 l0 -155 -55 0 -55 0 0 155 0 155
55 0 55 0 0 -155z m430 51 l33 -35 -133 -140 c-73 -78 -136 -141 -139 -141 -4
0 -22 16 -41 35 l-33 34 133 141 c73 77 135 140 139 140 4 0 22 -16 41 -34z
m-1871 -209 c55 -26 113 -84 140 -142 12 -25 21 -47 21 -50 0 -3 -28 -5 -62
-5 -59 0 -64 2 -80 29 -49 86 -173 100 -255 28 -64 -56 -81 -142 -44 -223 56
-124 233 -139 302 -27 19 31 24 33 74 33 30 0 56 -4 59 -8 9 -15 -35 -97 -72
-135 -62 -65 -104 -82 -202 -82 -99 0 -140 17 -206 87 -62 64 -77 101 -82 200
-4 76 -1 92 20 140 32 68 69 112 123 144 80 46 180 51 264 11z m331 -276 c0
-197 -4 -312 -10 -316 -6 -3 -30 -3 -55 1 l-45 6 0 309 0 309 55 0 55 0 0
-309z m388 159 c66 -29 72 -53 72 -285 l0 -195 -60 0 c-53 0 -60 2 -60 20 0
24 -3 24 -38 6 -135 -68 -269 25 -233 162 19 69 67 99 195 121 57 11 76 22 76
48 0 43 -94 59 -130 23 -11 -11 -20 -24 -20 -30 0 -6 -26 -10 -59 -10 l-59 0
8 35 c21 95 97 140 215 129 28 -3 69 -14 93 -24z m412 -40 l0 -60 -30 0 c-17
0 -44 -7 -60 -15 -52 -27 -60 -58 -60 -220 l0 -145 -60 0 -60 0 0 240 0 240
55 0 c48 0 55 -2 55 -20 0 -24 8 -25 29 -6 27 25 75 46 104 46 26 0 27 -1 27
-60z m352 33 c125 -68 165 -241 85 -360 -18 -26 -54 -61 -81 -77 -41 -26 -58
-30 -115 -30 -74 0 -111 15 -162 66 -67 68 -93 192 -56 279 20 48 72 106 116
129 57 30 151 27 213 -7z m496 -160 l3 -53 -150 0 -151 0 0 55 0 56 148 -3
147 -3 3 -52z m-1127 -556 c68 -46 84 -138 34 -202 -32 -43 -87 -69 -124 -60
-35 9 -98 77 -106 114 -12 57 29 140 80 161 36 16 82 10 116 -13z"/>
<path d="M1325 1331 c-71 -19 -97 -51 -77 -95 9 -21 18 -26 50 -26 20 0 47 7
59 15 21 15 43 70 43 108 0 20 3 20 -75 -2z"/>
<path d="M2038 1472 c-59 -36 -75 -123 -33 -184 79 -116 252 -25 215 113 -21
78 -114 114 -182 71z"/>
</g>
</svg>
