<?xml version="1.0" standalone="no"?>
<!DOCTYPE svg PUBLIC "-//W3C//DTD SVG 20010904//EN"
 "http://www.w3.org/TR/2001/REC-SVG-20010904/DTD/svg10.dtd">
<svg version="1.0" xmlns="http://www.w3.org/2000/svg"
 width="500.000000pt" height="500.000000pt" viewBox="0 0 500.000000 500.000000"
 preserveAspectRatio="xMidYMid meet">
<metadata>
Created by potrace 1.16, written by Peter Selinger 2001-2019
</metadata>
<g transform="translate(0.000000,500.000000) scale(0.100000,-0.100000)"
fill="#000000" stroke="none">
<path d="M572 4350 c-66 -22 -117 -62 -160 -124 -64 -96 -63 -73 -60 -922 l3
-769 26 -56 c33 -71 95 -133 162 -164 l52 -25 375 0 375 0 -3 -175 -3 -175
-55 0 c-61 0 -96 -15 -134 -55 -24 -25 -25 -34 -28 -160 -3 -129 -3 -133 19
-149 21 -14 88 -16 620 -16 l598 0 21 28 c20 25 22 36 18 137 -3 77 -10 120
-21 142 -24 45 -82 73 -152 73 l-55 0 0 175 0 175 375 0 376 0 57 29 c49 25
92 64 142 128 5 6 16 38 25 72 14 53 15 156 13 833 l-3 773 -26 55 c-42 90
-113 151 -205 178 -31 9 -323 12 -1170 11 -1063 0 -1132 -1 -1182 -19z m2364
-113 c60 -33 99 -88 114 -161 6 -32 9 -201 8 -461 -3 -383 -4 -410 -21 -413
-10 -2 -26 7 -37 20 -18 22 -19 42 -20 443 0 401 -1 421 -20 453 -11 18 -34
41 -52 52 -32 20 -53 20 -1154 20 l-1120 0 -34 -25 c-66 -49 -65 -37 -68 -499
-3 -359 -5 -422 -19 -442 -8 -13 -24 -24 -34 -24 -19 0 -20 13 -17 459 l3 459
30 43 c17 23 42 51 57 62 62 46 57 46 1228 44 l1105 -2 51 -28z m-68 -554 l2
-393 -57 0 c-64 0 -110 -22 -139 -65 -9 -14 -26 -25 -39 -25 -13 0 -30 11 -39
25 -32 48 -73 65 -159 65 -91 0 -142 -19 -166 -62 -14 -24 -22 -28 -58 -28
l-43 0 0 91 c0 109 -9 129 -54 129 l-33 0 -2 91 c-2 83 -16 152 -43 202 -21
40 -84 100 -128 122 -170 86 -364 21 -444 -148 -23 -47 -26 -67 -26 -160 l0
-107 -38 0 c-51 0 -62 -24 -62 -135 l0 -85 -40 0 c-31 0 -43 5 -56 25 -31 47
-74 65 -159 65 -89 0 -140 -19 -164 -62 -20 -35 -62 -38 -80 -5 -23 42 -62 61
-133 65 l-68 4 0 387 c0 213 3 391 7 394 3 4 504 6 1112 5 l1106 -3 3 -392z
m-1004 67 c87 -53 116 -114 116 -240 l0 -90 -45 0 -45 0 0 83 c0 90 -16 131
-65 163 -33 21 -107 21 -140 0 -46 -30 -59 -63 -63 -157 l-4 -89 -45 0 -45 0
4 103 c3 94 6 106 33 146 35 52 66 76 121 97 49 18 136 11 178 -16z m206 -645
c0 -208 -1 -225 -17 -225 -10 0 -151 -1 -313 0 l-295 0 -3 225 -2 225 315 0
315 0 0 -225z m-1556 -37 c12 -26 16 -85 18 -270 3 -260 4 -261 72 -312 27
-21 34 -21 1134 -24 1238 -3 1168 -7 1217 66 25 36 25 38 25 275 0 229 1 239
22 267 12 17 30 30 40 30 17 0 18 -15 16 -267 -3 -263 -3 -269 -28 -318 -34
-67 -94 -112 -162 -120 -29 -3 -548 -5 -1154 -3 l-1101 3 -48 30 c-36 22 -57
45 -77 84 l-28 53 0 269 c0 260 1 269 20 269 12 0 25 -12 34 -32z m396 19 c0
-7 14 -26 31 -43 28 -27 36 -29 125 -32 111 -5 143 5 176 54 20 29 29 34 63
34 l40 0 -3 -136 c-3 -111 0 -140 13 -160 l15 -24 385 0 c335 0 386 2 399 16
13 13 16 42 16 160 l0 144 36 0 c30 0 43 -7 74 -42 l38 -43 96 -3 c112 -4 140
4 176 53 23 32 70 49 70 26 0 -4 13 -23 29 -41 27 -31 35 -34 102 -39 l74 -6
3 -195 c1 -107 0 -205 -3 -217 l-5 -23 -1098 0 c-841 0 -1101 3 -1110 12 -9 9
-12 71 -12 219 l0 207 75 4 c66 3 77 7 105 33 16 16 30 35 30 42 0 8 12 13 30
13 18 0 30 -5 30 -13z m1150 -972 l0 -175 -305 0 -305 0 0 175 0 175 305 0
305 0 0 -175z m220 -295 c5 -8 10 -45 10 -82 l0 -68 -530 0 -530 0 0 75 c0 60
3 76 18 84 11 7 187 10 520 8 434 -2 504 -4 512 -17z"/>
<path d="M1716 3230 c-67 -21 -108 -99 -86 -165 6 -19 27 -48 46 -65 108 -94
269 44 194 167 -33 55 -95 80 -154 63z"/>
<path d="M3001 2290 c-104 -38 -184 -111 -230 -209 -23 -49 -26 -68 -26 -161
0 -93 3 -112 27 -162 37 -80 108 -152 187 -191 62 -30 73 -32 171 -32 98 0
109 2 172 33 78 38 148 110 187 192 22 48 26 68 25 160 0 93 -3 111 -27 163
-36 76 -120 160 -194 194 -80 36 -214 42 -292 13z m265 -75 c35 -21 56 -44 72
-76 24 -49 22 -89 -4 -68 -8 7 -18 8 -22 4 -4 -4 -1 -10 5 -12 10 -4 9 -8 -2
-20 -8 -8 -15 -28 -15 -44 0 -18 -5 -29 -14 -29 -17 0 -28 69 -13 88 6 8 6 12
-1 12 -6 0 -16 -8 -21 -17 -10 -17 -10 -16 -11 2 -1 20 -1 20 -15 1 -8 -11
-15 -15 -15 -8 0 8 -7 9 -26 2 -26 -10 -160 -7 -171 4 -3 3 -24 6 -45 6 -21 0
-38 4 -38 10 0 5 -7 7 -15 4 -19 -8 -19 7 0 53 22 52 42 72 100 100 42 20 62
23 126 21 63 -3 83 -8 125 -33z m-246 -310 c0 -78 -2 -85 -20 -85 -15 0 -20 7
-20 25 l0 24 -26 -24 c-51 -47 -119 -22 -130 47 -5 30 -2 41 19 62 36 36 88
36 116 0 l21 -27 0 25 c0 28 7 38 27 38 10 0 13 -21 13 -85z m109 31 c5 -6 11
-22 14 -36 3 -19 5 -16 6 12 1 34 3 36 36 36 25 0 35 -4 35 -16 0 -14 2 -14
18 1 50 45 123 -2 106 -69 -17 -68 -124 -53 -124 18 0 18 -5 28 -15 28 -24 0
-20 -84 6 -120 17 -23 21 -38 16 -71 -7 -50 -32 -78 -78 -88 -41 -9 -67 2 -93
36 -21 29 -25 105 -7 127 8 10 7 17 -4 26 -17 14 -20 56 -4 66 7 4 7 10 1 16
-14 14 -3 38 22 47 24 9 51 4 65 -13z"/>
</g>
</svg>
